<svg xmlns="http://www.w3.org/2000/svg" viewBox="0 0 16 16" role="img" aria-label="Rux">
<title>Rux</title>
<style>
svg{fill:#161616}
@media (prefers-color-scheme:dark){svg{fill:#f4f4f4}}
</style>
<path d="M2 8L12 8L12 12L2 12L2 8Z"/>
<path d="M8 2L13 2L13 3L8 3L8 2Z"/>
<path d="M1 4L2 4L2 8L1 8L1 4Z"/>
<path d="M4 12L5 12L5 14L4 14L4 12Z"/>
<path d="M11 12L12 12L12 14L11 14L11 12Z"/>
<path d="M9 12L10 12L10 14L9 14L9 12Z"/>
<path d="M2 12L3 12L3 14L2 14L2 12Z"/>
<path d="M5 3L7 3L7 7L5 7L5 3Z"/>
<path d="M12 2L13 2L13 5L12 5L12 2Z"/>
<path d="M10 2L11 2L11 5L10 5L10 2Z"/>
<path d="M8 4L15 4L15 6L8 6L8 4Z"/>
<path d="M8 4L12 4L12 9L8 9L8 4Z"/>
<path d="M6 3L9 3L9 4L6 4L6 3Z"/>
</svg>
